<svg xmlns="http://www.w3.org/2000/svg" viewBox="0 0 100 100" width="100px" height="100px">
  <rect width="100" height="100" rx="15" fill="#F4F4F6"/>
  <!-- Пара від гарячої страви -->
  <path d="M43 22 Q46 15 43 10 M50 24 Q53 14 50 8 M57 22 Q60 16 57 11" stroke="#E0E0E0" stroke-width="2" stroke-linecap="round" fill="none"/>
  <!-- Миска (Макітра) -->
  <path d="M25 45 C25 65 35 75 50 75 C65 75 75 65 75 45 Z" fill="#D3A27F"/>
  <!-- Традиційний орнамент (кола та лінії) -->
  <path d="M26 52 L74 52" stroke="#C0392B" stroke-width="3"/>
  <circle cx="35" cy="52" r="2" fill="#F1C40F"/>
  <circle cx="50" cy="52" r="2" fill="#F1C40F"/>
  <circle cx="65" cy="52" r="2" fill="#F1C40F"/>
  <!-- Обідок миски -->
  <path d="M23 42 H77 V46 H23 Z" fill="#BA845D" rx="2"/>
  <!-- Сметана/Ложка або наповнення всередині -->
  <path d="M40 42 Q50 48 60 42" stroke="#FFFFFF" stroke-width="4" stroke-linecap="round" fill="none"/>
</svg>
